<?xml version="1.0" encoding="utf-8"?>
<svg viewBox="0 0 500 500" xmlns="http://www.w3.org/2000/svg" xmlns:bx="https://boxy-svg.com">
  <path d="M 420.981 190.464 C 439.022 244.662 421.608 303.184 380.615 345.972 C 352.702 365.794 266.479 374.699 142.557 320.747 C 125.322 313.243 148.462 352.829 194.614 382.885 C 206.998 390.949 222.974 399.671 239.781 407.965 C 165.365 410.334 98.151 370.795 76.314 305.194 C 61.251 259.942 70.905 211.676 98.362 172.069 C 122.404 149.104 208.271 130.734 339.241 173.912 C 357.093 179.798 330.408 142.51 281.686 116.829 C 265.807 108.459 244.56 99.612 223.052 91.768 C 310.342 73.855 395.809 114.845 420.981 190.464 Z" style="fill: rgb(231, 89, 80);"/>
  <path d="M 209.794 152.785 L 274.794 282.785 L 144.794 282.785 L 209.794 152.785 Z" style="paint-order: fill; fill: rgb(255, 255, 255);" transform="matrix(0, 1, -1, 0, 476.193634, 32.997952)" bx:shape="triangle 144.794 152.785 130 130 0.5 0 1@af239524"/>
</svg>